M48
METRIC,LZ,000.000
;FILE_FORMAT=3:3
;TYPE=PLATED
;Layer: PTH_Through
;EasyEDA v6.5.29, 2023-07-17 12:51:40
;808404bb7cf74e47bcb3a87537bd774a,526de7724db94d99884824a7b7aad82a,10
;Gerber Generator version 0.2
;Holesize 1 = 0.305 mm
T01C0.305
;Holesize 2 = 0.306 mm
T02C0.306
;Holesize 3 = 1.000 mm
T03C1.000
;Holesize 4 = 1.101 mm
T04C1.101
%
G05
G90
T01
X041529Y082169
X039878Y076708
X042291Y080772
T02
X033297Y080787
X035941Y085518
X028473Y080791
X038354Y032004
T03
X027248Y113538
X016948Y113538
X034106Y109728
X023806Y109728
X031566Y131826
X021266Y131826
X021266Y126746
X031566Y126746
X023776Y078613
X026276Y078613
X018776Y078613
X021276Y078613
X037191Y078613
X039691Y078613
X032191Y078613
X034691Y078613
T04
X011410Y122698
X011410Y120158
X011410Y117618
X011410Y115078
X011410Y112538
X011410Y109998
X011410Y107458
X011410Y104918
X011410Y102378
X011410Y099838
X011410Y097298
X011410Y094758
X011410Y092218
X011410Y089678
X011410Y087138
X011410Y084598
X041880Y122698
X041880Y120158
X041880Y117618
X041880Y115078
X041880Y112538
X041880Y109998
X041880Y107458
X041880Y104918
X041880Y102378
X041880Y099838
X041880Y097298
X041880Y094758
X041880Y092218
X041880Y089678
X041880Y087138
X041880Y084598
X035052Y118237
X032512Y118237
X029972Y118237
X027432Y118237
X024892Y118237
X022352Y118237
X019812Y118237
X017272Y118237
X008818Y122698
X008818Y120158
X008818Y117618
X008818Y115078
X008818Y112538
X008818Y109998
X008818Y107458
X008818Y104918
X008818Y102378
X008818Y099838
X008818Y097298
X008818Y094758
X008818Y092218
X008818Y089678
X008818Y087138
X008818Y084598
X039288Y122698
X039288Y120158
X039288Y117618
X039288Y115078
X039288Y112538
X039288Y109998
X039288Y107458
X039288Y104918
X039288Y102378
X039288Y099838
X039288Y097298
X039288Y094758
X039288Y092218
X039288Y089678
X039288Y087138
X039288Y084598
X033007Y028829
X030507Y028829
X028007Y028829
X025507Y028829
X023007Y028829
X020507Y028829
X018007Y028829
X015507Y028829
X033007Y032893
X030507Y032893
X028007Y032893
X025507Y032893
X023007Y032893
X020507Y032893
X018007Y032893
X015507Y032893
X033528Y103599
X033528Y101099
X033528Y098599
X033528Y096099
X033528Y093599
X033528Y091099
X033528Y088599
X033528Y086099
M30
