G04 Layer: BottomLayer*
G04 EasyEDA v6.5.29, 2023-07-17 12:51:40*
G04 808404bb7cf74e47bcb3a87537bd774a,526de7724db94d99884824a7b7aad82a,10*
G04 Gerber Generator version 0.2*
G04 Scale: 100 percent, Rotated: No, Reflected: No *
G04 Dimensions in millimeters *
G04 leading zeros omitted , absolute positions ,4 integer and 5 decimal *
%FSLAX45Y45*%
%MOMM*%

%AMMACRO1*21,1,$1,$2,0,0,$3*%
%ADD10C,0.2540*%
%ADD11MACRO1,1.8X1.8X-90.0000*%
%ADD12R,1.8000X1.8000*%
%ADD13C,1.8000*%
%ADD14C,1.5240*%
%ADD15C,1.7000*%
%ADD16R,1.5748X1.7000*%
%ADD17R,1.7000X1.8000*%
%ADD18R,1.8000X1.7000*%
%ADD19C,1.6000*%
%ADD20R,1.6000X1.6000*%
%ADD21C,0.6100*%
%ADD22C,0.6096*%
%ADD23C,0.0164*%

%LPD*%
D10*
X3928872Y9221724D02*
G01*
X3759200Y9052052D01*
X3759200Y8508237D01*
X3329686Y8078723D01*
X2550668Y3289300D02*
G01*
X2753868Y3086100D01*
X3517900Y3086100D01*
X3937000Y3505200D01*
X3937000Y7391400D01*
X4102100Y7556500D01*
X4102100Y7975600D01*
X3810000Y8267700D01*
X3810000Y8849105D01*
X3928872Y8967724D01*
X3928798Y9221777D02*
G01*
X4188005Y9221777D01*
X3928798Y9983777D02*
G01*
X3689200Y9744179D01*
X3689200Y8646949D01*
X3594102Y8551852D01*
X3928798Y9983777D02*
G01*
X4188005Y9983777D01*
X3928798Y10237777D02*
G01*
X3640660Y9949639D01*
X3640660Y8729296D01*
X2990496Y8079132D01*
X2847317Y8079132D01*
X3928798Y10237777D02*
G01*
X4188005Y10237777D01*
X2300683Y2882900D02*
G01*
X2431615Y2751968D01*
X3386968Y2751968D01*
X3835400Y3200400D01*
X3928798Y10745777D02*
G01*
X4188005Y10745777D01*
X3928798Y8967777D02*
G01*
X4188005Y8967777D01*
X3928798Y9475777D02*
G01*
X4188005Y9475777D01*
X3928798Y9729777D02*
G01*
X4188005Y9729777D01*
X2743202Y11823727D02*
G01*
X3567153Y10999777D01*
X3928798Y10999777D01*
X3156612Y12674627D02*
G01*
X2743202Y12261217D01*
X2743202Y11823727D01*
X3928798Y10999777D02*
G01*
X4188005Y10999777D01*
X3969108Y7861302D02*
G01*
X3861005Y7753200D01*
X3419706Y7753200D01*
X3329713Y7843192D01*
X3329713Y7950761D01*
X3305990Y7974484D01*
X2740789Y7974484D01*
X2627607Y7861302D01*
X3161007Y12841277D02*
G01*
X2489202Y12169472D01*
X2489202Y11823727D01*
X3156612Y13182627D02*
G01*
X3156612Y12845671D01*
X3161007Y12841277D01*
X3928798Y11253777D02*
G01*
X3672944Y11509631D01*
X3672944Y12329340D01*
X3161007Y12841277D01*
X3928798Y11253777D02*
G01*
X4188005Y11253777D01*
X3719121Y7861302D02*
G01*
X3561361Y8019061D01*
X2535379Y8019061D01*
X2377620Y7861302D01*
X3928798Y12015777D02*
G01*
X4188005Y12015777D01*
X3928798Y12269777D02*
G01*
X4188005Y12269777D01*
X1011405Y9373034D02*
G01*
X1038252Y9373034D01*
X1140995Y9475777D01*
X881788Y9475777D02*
G01*
X984531Y9373034D01*
X1011405Y9373034D01*
X2300683Y3289302D02*
G01*
X2300683Y6850103D01*
X1011405Y8139381D01*
X1011405Y9373034D01*
X1140995Y10745777D02*
G01*
X1645211Y10241561D01*
X1645211Y7889471D01*
X3172487Y6362194D01*
X3172487Y3229333D01*
X3102841Y3159686D01*
X2930324Y3159686D01*
X2800708Y3289302D01*
X881788Y10745777D02*
G01*
X1140995Y10745777D01*
X881788Y9983777D02*
G01*
X1140995Y9983777D01*
X881788Y10237777D02*
G01*
X1140995Y10237777D01*
X881788Y10491777D02*
G01*
X1140995Y10491777D01*
X3050720Y3289302D02*
G01*
X3050720Y6406847D01*
X1277063Y8180504D01*
X1277063Y8577709D01*
X1140995Y8713777D01*
X881788Y10999777D02*
G01*
X1140995Y10999777D01*
X2380592Y10972802D02*
G01*
X1421970Y10972802D01*
X1140995Y11253777D01*
X3352802Y8609916D02*
G01*
X3486025Y8743139D01*
X3486025Y8896454D01*
X3397582Y8984896D01*
X3295779Y8984896D01*
X2380592Y9900084D01*
X2380592Y10972802D01*
X881788Y11253777D02*
G01*
X1140995Y11253777D01*
X1694792Y11353802D02*
G01*
X1294970Y11353802D01*
X1140995Y11507777D01*
X3352802Y9359902D02*
G01*
X2620520Y10092184D01*
X2620520Y10886823D01*
X2153541Y11353802D01*
X1694792Y11353802D01*
X881788Y11507777D02*
G01*
X1140995Y11507777D01*
X881788Y11761777D02*
G01*
X1140995Y11761777D01*
X3352802Y10109913D02*
G01*
X3472868Y10229979D01*
X3472868Y10455963D01*
X2302969Y11625861D01*
X1276911Y11625861D01*
X1140995Y11761777D01*
X3218919Y7861302D02*
G01*
X3111197Y7861302D01*
X3219122Y7861302D02*
G01*
X3218919Y7861302D01*
X881788Y12015777D02*
G01*
X763475Y11897464D01*
X763475Y11709021D01*
X828804Y11643692D01*
X1172085Y11643692D01*
X1311556Y11504221D01*
X2321384Y11504221D01*
X3352802Y10472803D01*
X881788Y12015777D02*
G01*
X1140995Y12015777D01*
X3352802Y10359900D02*
G01*
X3352802Y10472803D01*
X2235202Y11823727D02*
G01*
X2043153Y12015777D01*
X1140995Y12015777D01*
X3928798Y11507777D02*
G01*
X4188005Y11507777D01*
X3928798Y8713777D02*
G01*
X4188005Y8713777D01*
X3352802Y9859901D02*
G01*
X3484704Y9727999D01*
X3484704Y9241817D01*
X3352802Y9109915D01*
X3352802Y10246997D02*
G01*
X3296338Y10246997D01*
X3220900Y10171559D01*
X3220900Y9991803D01*
X3352802Y9859901D01*
X3352802Y10359900D02*
G01*
X3352802Y10246997D01*
X1877621Y7861302D02*
G01*
X1985520Y7861302D01*
X3111197Y7861302D02*
G01*
X2988210Y7738315D01*
X2081532Y7738315D01*
X1985520Y7834327D01*
X1985520Y7861302D01*
X1140995Y12269777D02*
G01*
X1258902Y12269777D01*
X1258902Y12269777D02*
G01*
X1663753Y12674627D01*
X2126592Y12674627D01*
X881788Y12269777D02*
G01*
X1140995Y12269777D01*
X1981202Y11823727D02*
G01*
X2101877Y11703052D01*
X2375562Y11703052D01*
X2724812Y11353802D01*
X3410612Y10972802D02*
G01*
X3105812Y10972802D01*
X2724812Y11353802D01*
X3928798Y11761777D02*
G01*
X4188005Y11761777D01*
X3300681Y2882902D02*
G01*
X3187778Y2882902D01*
X3187778Y2882902D02*
G01*
X3187778Y2939341D01*
X3123465Y3003654D01*
X1921461Y3003654D01*
X1800710Y2882902D01*
X2127608Y7861302D02*
G01*
X3126209Y8859903D01*
X3352802Y8859903D01*
X881788Y9729777D02*
G01*
X1140995Y9729777D01*
X3928798Y10491777D02*
G01*
X4188005Y10491777D01*
X3928877Y8713726D02*
G01*
X4051300Y8591295D01*
X4051300Y8293100D01*
X4127500Y8216900D01*
X4152900Y8216900D01*
X3987800Y7670800D02*
G01*
X3409614Y7670800D01*
X3219114Y7861300D01*
X3937000Y8521700D02*
G01*
X3937000Y8299704D01*
X4159504Y8077200D01*
X4229100Y8077200D01*
D11*
G01*
X1140993Y12269774D03*
D12*
G01*
X1140993Y12015774D03*
D13*
G01*
X1140993Y11761774D03*
G01*
X1140993Y11507774D03*
G01*
X1140993Y11253774D03*
G01*
X1140993Y10999774D03*
G01*
X1140993Y10745774D03*
G01*
X1140993Y10491774D03*
G01*
X1140993Y10237774D03*
D12*
G01*
X1140993Y9983774D03*
D13*
G01*
X1140993Y9729774D03*
G01*
X1140993Y9475774D03*
G01*
X1140993Y9221774D03*
G01*
X1140993Y8967774D03*
G01*
X1140993Y8713774D03*
D12*
G01*
X1140993Y8459774D03*
D13*
G01*
X4188002Y12269774D03*
G01*
X4188002Y12015774D03*
D12*
G01*
X4188002Y11761774D03*
G01*
X4188002Y11507774D03*
D13*
G01*
X4188002Y11253774D03*
G01*
X4188002Y10999774D03*
G01*
X4188002Y10745774D03*
G01*
X4188002Y10491774D03*
G01*
X4188002Y10237774D03*
G01*
X4188002Y9983774D03*
G01*
X4188002Y9729774D03*
G01*
X4188002Y9475774D03*
G01*
X4188002Y9221774D03*
G01*
X4188002Y8967774D03*
D12*
G01*
X4188002Y8713774D03*
D13*
G01*
X4188002Y8459774D03*
D14*
G01*
X2724810Y11353800D03*
G01*
X1694789Y11353800D03*
D15*
G01*
X3505200Y11823725D03*
G01*
X3251200Y11823725D03*
G01*
X2997200Y11823725D03*
G01*
X2743200Y11823725D03*
G01*
X2489200Y11823725D03*
G01*
X2235200Y11823725D03*
G01*
X1981200Y11823725D03*
D16*
G01*
X1727200Y11823725D03*
D14*
G01*
X3410610Y10972800D03*
G01*
X2380589Y10972800D03*
G01*
X3156610Y13182625D03*
G01*
X2126589Y13182625D03*
G01*
X2126589Y12674625D03*
G01*
X3156610Y12674625D03*
D12*
G01*
X881786Y12269774D03*
D13*
G01*
X881786Y12015774D03*
G01*
X881786Y11761774D03*
G01*
X881786Y11507774D03*
G01*
X881786Y11253774D03*
G01*
X881786Y10999774D03*
G01*
X881786Y10745774D03*
G01*
X881786Y10491774D03*
G01*
X881786Y10237774D03*
G01*
X881786Y9983774D03*
G01*
X881786Y9729774D03*
G01*
X881786Y9475774D03*
G01*
X881786Y9221774D03*
G01*
X881786Y8967774D03*
G01*
X881786Y8713774D03*
G01*
X881786Y8459774D03*
D12*
G01*
X3928795Y12269774D03*
D13*
G01*
X3928795Y12015774D03*
G01*
X3928795Y11761774D03*
G01*
X3928795Y11507774D03*
G01*
X3928795Y11253774D03*
G01*
X3928795Y10999774D03*
G01*
X3928795Y10745774D03*
G01*
X3928795Y10491774D03*
G01*
X3928795Y10237774D03*
G01*
X3928795Y9983774D03*
G01*
X3928795Y9729774D03*
G01*
X3928795Y9475774D03*
G01*
X3928795Y9221774D03*
G01*
X3928795Y8967774D03*
G01*
X3928795Y8713774D03*
G01*
X3928795Y8459774D03*
D17*
G01*
X3300679Y2882900D03*
D13*
G01*
X3050717Y2882900D03*
G01*
X2800705Y2882900D03*
G01*
X2550718Y2882900D03*
G01*
X2300681Y2882900D03*
G01*
X2050719Y2882900D03*
G01*
X1800707Y2882900D03*
G01*
X1550720Y2882900D03*
D17*
G01*
X3300679Y3289300D03*
D13*
G01*
X3050717Y3289300D03*
G01*
X2800705Y3289300D03*
G01*
X2550718Y3289300D03*
G01*
X2300681Y3289300D03*
G01*
X2050719Y3289300D03*
G01*
X1800707Y3289300D03*
G01*
X1550720Y3289300D03*
D18*
G01*
X3352800Y10359897D03*
D13*
G01*
X3352800Y10109911D03*
G01*
X3352800Y9859899D03*
G01*
X3352800Y9609912D03*
G01*
X3352800Y9359900D03*
G01*
X3352800Y9109913D03*
G01*
X3352800Y8859901D03*
G01*
X3352800Y8609914D03*
D19*
G01*
X2377617Y7861300D03*
G01*
X2627604Y7861300D03*
D20*
G01*
X1877618Y7861300D03*
D19*
G01*
X2127605Y7861300D03*
G01*
X3719118Y7861300D03*
G01*
X3969105Y7861300D03*
D20*
G01*
X3219119Y7861300D03*
D19*
G01*
X3469081Y7861300D03*
D21*
G01*
X3329711Y8078723D03*
G01*
X3594100Y8551849D03*
G01*
X2847314Y8079130D03*
G01*
X3835400Y3200400D03*
D22*
G01*
X4152900Y8216900D03*
G01*
X3987800Y7670800D03*
G01*
X4229100Y8077200D03*
M02*
