G04 Layer: BottomSolderMaskLayer*
G04 EasyEDA v6.5.29, 2023-07-17 12:51:40*
G04 808404bb7cf74e47bcb3a87537bd774a,526de7724db94d99884824a7b7aad82a,10*
G04 Gerber Generator version 0.2*
G04 Scale: 100 percent, Rotated: No, Reflected: No *
G04 Dimensions in millimeters *
G04 leading zeros omitted , absolute positions ,4 integer and 5 decimal *
%FSLAX45Y45*%
%MOMM*%

%AMMACRO1*1,1,$1,$2,$3*1,1,$1,$4,$5*1,1,$1,0-$2,0-$3*1,1,$1,0-$4,0-$5*20,1,$1,$2,$3,$4,$5,0*20,1,$1,$4,$5,0-$2,0-$3,0*20,1,$1,0-$2,0-$3,0-$4,0-$5,0*20,1,$1,0-$4,0-$5,$2,$3,0*4,1,4,$2,$3,$4,$5,0-$2,0-$3,0-$4,0-$5,$2,$3,0*%
%ADD10MACRO1,0.1016X-0.9X0.9X-0.9X-0.9*%
%ADD11MACRO1,0.1016X-0.9X-0.9X-0.9X0.9*%
%ADD12C,1.9016*%
%ADD13C,1.6256*%
%ADD14C,1.8016*%
%ADD15MACRO1,0.1016X-0.7874X0.85X0.7874X0.85*%
%ADD16MACRO1,0.1016X0.9X0.9X0.9X-0.9*%
%ADD17MACRO1,0.1016X0.85X-0.9X-0.85X-0.9*%
%ADD18MACRO1,0.1016X0.9X0.85X0.9X-0.85*%
%ADD19C,1.7016*%
%ADD20MACRO1,0.1016X0.8X0.8X0.8X-0.8*%

%LPD*%
D10*
G01*
X1140993Y12269774D03*
D11*
G01*
X1140993Y12015774D03*
D12*
G01*
X1140993Y11761774D03*
G01*
X1140993Y11507774D03*
G01*
X1140993Y11253774D03*
G01*
X1140993Y10999774D03*
G01*
X1140993Y10745774D03*
G01*
X1140993Y10491774D03*
G01*
X1140993Y10237774D03*
D11*
G01*
X1140993Y9983774D03*
D12*
G01*
X1140993Y9729774D03*
G01*
X1140993Y9475774D03*
G01*
X1140993Y9221774D03*
G01*
X1140993Y8967774D03*
G01*
X1140993Y8713774D03*
D11*
G01*
X1140993Y8459774D03*
D12*
G01*
X4188002Y12269774D03*
G01*
X4188002Y12015774D03*
D11*
G01*
X4188002Y11761774D03*
G01*
X4188002Y11507774D03*
D12*
G01*
X4188002Y11253774D03*
G01*
X4188002Y10999774D03*
G01*
X4188002Y10745774D03*
G01*
X4188002Y10491774D03*
G01*
X4188002Y10237774D03*
G01*
X4188002Y9983774D03*
G01*
X4188002Y9729774D03*
G01*
X4188002Y9475774D03*
G01*
X4188002Y9221774D03*
G01*
X4188002Y8967774D03*
D11*
G01*
X4188002Y8713774D03*
D12*
G01*
X4188002Y8459774D03*
D13*
G01*
X2724810Y11353800D03*
G01*
X1694789Y11353800D03*
D14*
G01*
X3505200Y11823725D03*
G01*
X3251200Y11823725D03*
G01*
X2997200Y11823725D03*
G01*
X2743200Y11823725D03*
G01*
X2489200Y11823725D03*
G01*
X2235200Y11823725D03*
G01*
X1981200Y11823725D03*
D15*
G01*
X1727200Y11823725D03*
D13*
G01*
X3410610Y10972800D03*
G01*
X2380589Y10972800D03*
G01*
X3156610Y13182625D03*
G01*
X2126589Y13182625D03*
G01*
X2126589Y12674625D03*
G01*
X3156610Y12674625D03*
D16*
G01*
X881786Y12269774D03*
D12*
G01*
X881786Y12015774D03*
G01*
X881786Y11761774D03*
G01*
X881786Y11507774D03*
G01*
X881786Y11253774D03*
G01*
X881786Y10999774D03*
G01*
X881786Y10745774D03*
G01*
X881786Y10491774D03*
G01*
X881786Y10237774D03*
G01*
X881786Y9983774D03*
G01*
X881786Y9729774D03*
G01*
X881786Y9475774D03*
G01*
X881786Y9221774D03*
G01*
X881786Y8967774D03*
G01*
X881786Y8713774D03*
G01*
X881786Y8459774D03*
D16*
G01*
X3928795Y12269774D03*
D12*
G01*
X3928795Y12015774D03*
G01*
X3928795Y11761774D03*
G01*
X3928795Y11507774D03*
G01*
X3928795Y11253774D03*
G01*
X3928795Y10999774D03*
G01*
X3928795Y10745774D03*
G01*
X3928795Y10491774D03*
G01*
X3928795Y10237774D03*
G01*
X3928795Y9983774D03*
G01*
X3928795Y9729774D03*
G01*
X3928795Y9475774D03*
G01*
X3928795Y9221774D03*
G01*
X3928795Y8967774D03*
G01*
X3928795Y8713774D03*
G01*
X3928795Y8459774D03*
D17*
G01*
X3300690Y2882901D03*
D12*
G01*
X3050717Y2882900D03*
G01*
X2800705Y2882900D03*
G01*
X2550718Y2882900D03*
G01*
X2300681Y2882900D03*
G01*
X2050719Y2882900D03*
G01*
X1800707Y2882900D03*
G01*
X1550720Y2882900D03*
D17*
G01*
X3300690Y3289301D03*
D12*
G01*
X3050717Y3289300D03*
G01*
X2800705Y3289300D03*
G01*
X2550718Y3289300D03*
G01*
X2300681Y3289300D03*
G01*
X2050719Y3289300D03*
G01*
X1800707Y3289300D03*
G01*
X1550720Y3289300D03*
D18*
G01*
X3352798Y10359896D03*
D12*
G01*
X3352800Y10109911D03*
G01*
X3352800Y9859899D03*
G01*
X3352800Y9609912D03*
G01*
X3352800Y9359900D03*
G01*
X3352800Y9109913D03*
G01*
X3352800Y8859901D03*
G01*
X3352800Y8609914D03*
D19*
G01*
X2377617Y7861300D03*
G01*
X2627604Y7861300D03*
D20*
G01*
X1877606Y7861300D03*
D19*
G01*
X2127605Y7861300D03*
G01*
X3719118Y7861300D03*
G01*
X3969105Y7861300D03*
D20*
G01*
X3219107Y7861300D03*
D19*
G01*
X3469081Y7861300D03*
M02*
